# xmcd
#
# Track frame offsets: 
#        15619
#        60463
#        172028
#
# Disc length: 3372 seconds
#
# Revision: 0
# Processed by: cddbd v1.5.1PL2 Copyright (c) Steve Scherf et al.
# Submitted via: ExactAudioCopy v0.95a5
#
DISCID=280c5c03
DTITLE=Birchville Cat Motel - Summer's Seething Pulse
DYEAR=2003
DGENRE=Acid
TTITLE0=Sleep June Sleep
TTITLE1=Seven Paper Lanterns
TTITLE2=Summer's Seething Pulse
EXTD=
EXTT0=
EXTT1=
EXTT2=
PLAYORDER=
